<?xml version="1.0" encoding="UTF-8" standalone="no"?>
<!DOCTYPE svg PUBLIC "-//W3C//DTD SVG 1.1//EN" "http://www.w3.org/Graphics/SVG/1.1/DTD/svg11.dtd">
<svg width="162px" height="191px" version="1.1" xmlns="http://www.w3.org/2000/svg" xmlns:xlink="http://www.w3.org/1999/xlink" xml:space="preserve" xmlns:serif="http://www.serif.com/" style="fill-rule:evenodd;clip-rule:evenodd;stroke-linejoin:round;stroke-miterlimit:2;">
    <g transform="matrix(0.555556,0,0,0.555556,-32.9498,-18.6131)">
        <g transform="matrix(0.213542,0,0,0.37963,0,0)">
            <g transform="matrix(4.68293,0,0,2.63415,276.48,88.3622)">
                <g id="path2" transform="matrix(0.661089,0,0,0.661089,-2.00167,-2.29014)">
                    <path d="M134.929,10.772L134.929,18.142L120.189,18.142L120.189,34.016L134.929,34.016L134.929,49.89L150.803,49.89L150.803,34.016L165.356,34.016L166.11,18.136L150.803,18.142L150.803,3.402L134.929,3.402L134.929,10.772M96.636,55.417C92.721,56.574 86.854,59.219 83.597,61.296C77.848,64.956 77.295,65.072 65.197,65.188C13.056,65.69 -14.905,121.635 16.886,161.853L21.436,167.607L33.678,162.207C40.411,159.239 46.894,156.464 48.078,156.042C49.921,155.39 49.504,154.811 45.244,152.107C23.896,138.555 26.045,106.209 49.051,94.742C57.362,90.601 57.929,90.805 55.922,97.228C51.137,112.541 56.103,137.611 66.249,149.363C66.37,149.505 72.49,148.102 79.846,146.245C87.199,144.386 94.516,142.866 96.103,142.866C98.787,142.866 98.663,142.631 94.283,139.462C64.125,117.612 87.625,70.495 123.384,81.113L129.26,82.86L129.26,138.331L156.472,138.331L156.472,83.083L162.836,81.079C199.633,69.506 222.579,122.973 188.787,141.551C186.644,142.727 186.678,142.798 189.377,142.832C190.95,142.852 198.349,144.371 205.818,146.208C221.389,150.041 219.94,150.559 225.822,139.031C232.206,126.513 233.765,111.073 230.051,97.115C228.54,91.429 228.951,91.196 235.466,94.071C259.824,104.814 262.307,143.518 239.247,153.071C235.403,154.661 235.621,155.886 239.941,156.971C241.583,157.382 247.703,159.953 253.542,162.68L264.158,167.641L268.01,163.14C301.924,123.52 269.878,60.616 218.083,65.132C210.399,65.803 209.673,65.656 204.534,62.396C188.186,52.03 167.924,50.417 148.887,57.969L142.999,60.304L135.281,57.183C124.977,53.016 107.459,52.217 96.636,55.417M129.26,154.885C104.111,157.062 86.783,160.245 68.774,166.005C55.154,170.359 34.016,179.181 34.016,180.51C34.016,183.277 51.301,215.561 52.498,215.028C115.421,187.138 170.311,187.138 233.235,215.028C234.354,215.527 251.717,183.365 251.717,180.791C251.717,179.558 233.016,171.411 221.102,167.454C192.926,158.091 153.907,152.751 129.26,154.885" style="fill:rgb(253,190,15);"/>
                </g>
                <g id="path4" transform="matrix(0.661089,0,0,0.661089,-2.00167,-2.29014)">
                    <path d="M10.205,354.699L10.205,487.162L26.929,495.238C101.894,531.431 186.409,531.221 260.504,494.657L275.528,487.242L275.528,222.236L10.205,222.236L10.205,354.699M94.487,262.335C96.525,263.188 105.31,270.819 114.009,279.298L129.827,294.71L89.583,294.758L49.34,294.803L65.625,279.213C85.277,260.396 87.182,259.282 94.487,262.335M201.013,262.437C203.02,263.344 211.805,270.984 220.535,279.414L236.409,294.741L196.157,294.715L155.906,294.687L171.78,279.309C190.908,260.782 193.737,259.149 201.013,262.437M95.936,326.874C97.251,327.631 105.398,335.013 114.038,343.276L129.75,358.299L90.105,358.243L50.457,358.189L66.331,342.811C75.061,334.352 83.225,327.01 84.472,326.497C87.803,325.123 93.2,325.301 95.936,326.874M208.318,332.107C212.542,335.786 220.326,343.185 225.612,348.548L235.225,358.299L156.427,358.299L171.879,343.276C194.182,321.593 195.704,321.126 208.318,332.107M96.945,391.731C98.192,392.511 106.101,399.824 114.52,407.985L129.827,422.824L89.6,422.875L49.374,422.929L52.183,420.259C53.728,418.791 61.441,411.435 69.324,403.914C85.382,388.59 89.206,386.904 96.945,391.731M202.518,391.051C203.21,391.433 211.119,398.758 220.093,407.327L236.409,422.909L196.157,422.864L155.906,422.821L172.346,407.004C190.709,389.336 195.168,386.977 202.518,391.051M150.024,455.661C152.923,457.571 182.551,486.278 182.551,487.176C182.551,487.386 164.565,487.542 142.583,487.519L102.614,487.48L118.831,471.589C138.314,452.494 142.206,450.505 150.024,455.661" style="fill:rgb(12,44,132);"/>
                </g>
            </g>
        </g>
        <g transform="matrix(0.213542,0,0,0.37963,0,0)">
            <g transform="matrix(1.30412,0,0,0.733566,598.336,175.507)">
                <path d="M7.5,657.5L238.75,412.5L61.25,153.75C52.5,165 46.25,181.25 45,197.5L0,611.25C-1.25,628.75 1.25,645 7.5,657.5" style="fill:rgb(176,189,198);fill-rule:nonzero;"/>
                <path d="M783.75,110L448.75,425L712.5,786.25C727.5,773.75 737.5,755 740,731.25L800,167.5C802.5,143.75 795,123.75 783.75,110" style="fill:rgb(176,189,198);fill-rule:nonzero;"/>
                <path d="M321.25,538.75L238.75,412.5L7.5,657.5C12.5,668.75 21.25,676.25 31.25,678.75L666.25,800C683.75,803.75 700,797.5 712.5,786.25L448.75,425L321.25,538.75" style="fill:rgb(202,213,221);fill-rule:nonzero;"/>
                <path d="M741.25,91.25L88.75,136.25C78.75,137.5 68.75,143.75 61.25,153.75L238.75,412.5L321.25,538.75L448.75,425L783.75,110C772.5,97.5 757.5,90 741.25,91.25" style="fill:rgb(223,233,239);fill-rule:nonzero;"/>
                <path d="M338.75,407.5L192.5,188.75L253.75,187.5L257.5,8.75L446.25,0L441.25,191.25L546.25,193.75L338.75,407.5Z" style="fill:rgb(237,76,92);fill-rule:nonzero;"/>
            </g>
        </g>
    </g>
</svg>
